<?xml version="1.0" encoding="UTF-8" standalone="no"?>
<!DOCTYPE svg PUBLIC "-//W3C//DTD SVG 1.1//EN"
 "http://www.w3.org/Graphics/SVG/1.1/DTD/svg11.dtd">
<!-- Generated by graphviz version 2.26.3 (20100126.1600)
 -->
<!-- Title: BP Pages: 1 -->
<svg width="360pt" height="318pt"
 viewBox="0.00 0.00 360.23 318.00" xmlns="http://www.w3.org/2000/svg" xmlns:xlink="http://www.w3.org/1999/xlink">
<g id="graph1" class="graph" transform="scale(1 1) rotate(0) translate(4 314)">
<title>BP</title>
<polygon fill="white" stroke="white" points="-4,5 -4,-314 357.226,-314 357.226,5 -4,5"/>
<!-- n1_1 -->
<g id="node1" class="node"><title>n1_1</title>
<polygon fill="white" stroke="black" points="22,-238 5.32907e-015,-238 0,-216 22,-216 22,-238"/>
</g>
<!-- n1_1_l -->
<g id="node2" class="node"><title>n1_1_l</title>
<polygon fill="white" stroke="white" points="22,-274 5.32907e-015,-274 0,-252 22,-252 22,-274"/>
</g>
<!-- n1_1_l&#45;&gt;n1_1 -->
<g id="edge2" class="edge"><title>n1_1_l&#45;&gt;n1_1</title>
<path fill="none" stroke="white" d="M11,-251.609C11,-247.325 11,-242.46 11,-238.193"/>
<text text-anchor="middle" x="15.2262" y="-245.556" font-family="Helvetica,sans-Serif" font-size="8.00">&#39;x&#39; (1)[1]</text>
</g>
<!-- n1_0 -->
<g id="node4" class="node"><title>n1_0</title>
<ellipse fill="white" stroke="black" cx="55" cy="-263" rx="11" ry="11"/>
</g>
<!-- n1_0&#45;&gt;n1_1 -->
<g id="edge4" class="edge"><title>n1_0&#45;&gt;n1_1</title>
<path fill="none" stroke="black" d="M46.0959,-255.715C41.4394,-251.905 35.5521,-247.088 29.9365,-242.493"/>
<polygon fill="black" stroke="black" points="32.0341,-239.688 22.0782,-236.064 27.6015,-245.105 32.0341,-239.688"/>
</g>
<!-- n1_0_l -->
<g id="node6" class="node"><title>n1_0_l</title>
<polygon fill="white" stroke="white" points="66,-310 44,-310 44,-288 66,-288 66,-310"/>
</g>
<!-- n1_0_l&#45;&gt;n1_0 -->
<g id="edge6" class="edge"><title>n1_0_l&#45;&gt;n1_0</title>
<path fill="none" stroke="white" d="M55,-287.609C55,-283.325 55,-278.46 55,-274.193"/>
<text text-anchor="middle" x="59.2262" y="-281.556" font-family="Helvetica,sans-Serif" font-size="8.00">&#39;p&#39; (0)[0]</text>
</g>
<!-- n4_4 -->
<g id="node8" class="node"><title>n4_4</title>
<polygon fill="white" stroke="black" points="88,-130 66,-130 66,-108 88,-108 88,-130"/>
</g>
<!-- n4_4_l -->
<g id="node9" class="node"><title>n4_4_l</title>
<polygon fill="white" stroke="white" points="66,-166 44,-166 44,-144 66,-144 66,-166"/>
</g>
<!-- n4_4_l&#45;&gt;n4_4 -->
<g id="edge8" class="edge"><title>n4_4_l&#45;&gt;n4_4</title>
<path fill="none" stroke="white" d="M61.9609,-143.609C64.5793,-139.325 67.5523,-134.46 70.1597,-130.193"/>
<text text-anchor="middle" x="69.0398" y="-138.43" font-family="Helvetica,sans-Serif" font-size="8.00">&#39;r&#39; (3)[4]</text>
</g>
<!-- n4_3 -->
<g id="node11" class="node"><title>n4_3</title>
<ellipse fill="white" stroke="black" cx="99" cy="-155" rx="11" ry="11"/>
</g>
<!-- n4_3&#45;&gt;n4_4 -->
<g id="edge10" class="edge"><title>n4_3&#45;&gt;n4_4</title>
<path fill="none" stroke="black" d="M93.2198,-145.541C91.9499,-143.463 90.5591,-141.188 89.1428,-138.87"/>
<polygon fill="black" stroke="black" points="91.9569,-136.763 83.7559,-130.055 85.9839,-140.413 91.9569,-136.763"/>
</g>
<!-- n4_3_l -->
<g id="node13" class="node"><title>n4_3_l</title>
<polygon fill="white" stroke="white" points="66,-202 44,-202 44,-180 66,-180 66,-202"/>
</g>
<!-- n4_3_l&#45;&gt;n4_3 -->
<g id="edge12" class="edge"><title>n4_3_l&#45;&gt;n4_3</title>
<path fill="none" stroke="white" d="M66.1031,-181.916C73.6387,-175.75 83.4564,-167.718 90.3988,-162.037"/>
<text text-anchor="middle" x="86.0606" y="-169.347" font-family="Helvetica,sans-Serif" font-size="8.00">&#39;q&#39; (2)[3]</text>
</g>
<!-- n4_2 -->
<g id="node15" class="node"><title>n4_2</title>
<ellipse fill="white" stroke="black" cx="99" cy="-191" rx="11" ry="11"/>
</g>
<!-- n4_2&#45;&gt;n4_3 -->
<g id="edge14" class="edge"><title>n4_2&#45;&gt;n4_3</title>
<path fill="none" stroke="grey" stroke-dasharray="5,2" d="M99,-179.609C99,-178.538 99,-177.431 99,-176.305"/>
<polygon fill="grey" stroke="grey" points="102.5,-176.193 99,-166.193 95.5001,-176.193 102.5,-176.193"/>
</g>
<!-- n4_2_l -->
<g id="node17" class="node"><title>n4_2_l</title>
<polygon fill="white" stroke="white" points="88,-238 66,-238 66,-216 88,-216 88,-238"/>
</g>
<!-- n4_2_l&#45;&gt;n4_2 -->
<g id="edge16" class="edge"><title>n4_2_l&#45;&gt;n4_2</title>
<path fill="none" stroke="white" d="M83.9609,-215.609C86.8815,-210.83 90.2431,-205.329 93.0465,-200.742"/>
<text text-anchor="middle" x="91.9267" y="-208.979" font-family="Helvetica,sans-Serif" font-size="8.00">&#39;q&#39; (2)[2]</text>
</g>
<!-- n4_1 -->
<g id="node19" class="node"><title>n4_1</title>
<polygon fill="white" stroke="black" points="132,-238 110,-238 110,-216 132,-216 132,-238"/>
</g>
<!-- n4_1&#45;&gt;n4_2 -->
<g id="edge18" class="edge"><title>n4_1&#45;&gt;n4_2</title>
<path fill="none" stroke="black" d="M114.039,-215.609C112.853,-213.668 111.593,-211.607 110.328,-209.537"/>
<polygon fill="black" stroke="black" points="113.155,-207.45 104.954,-200.742 107.182,-211.1 113.155,-207.45"/>
</g>
<!-- n4_1_l -->
<g id="node21" class="node"><title>n4_1_l</title>
<polygon fill="white" stroke="white" points="110,-274 88,-274 88,-252 110,-252 110,-274"/>
</g>
<!-- n4_1_l&#45;&gt;n4_1 -->
<g id="edge20" class="edge"><title>n4_1_l&#45;&gt;n4_1</title>
<path fill="none" stroke="white" d="M105.961,-251.609C108.579,-247.325 111.552,-242.46 114.16,-238.193"/>
<text text-anchor="middle" x="113.04" y="-246.43" font-family="Helvetica,sans-Serif" font-size="8.00">&#39;x&#39; (1)[1]</text>
</g>
<!-- n4_0 -->
<g id="node23" class="node"><title>n4_0</title>
<ellipse fill="white" stroke="black" cx="143" cy="-263" rx="11" ry="11"/>
</g>
<!-- n4_0&#45;&gt;n4_1 -->
<g id="edge22" class="edge"><title>n4_0&#45;&gt;n4_1</title>
<path fill="none" stroke="black" d="M137.22,-253.541C135.95,-251.463 134.559,-249.188 133.143,-246.87"/>
<polygon fill="black" stroke="black" points="135.957,-244.763 127.756,-238.055 129.984,-248.413 135.957,-244.763"/>
</g>
<!-- n4_0_l -->
<g id="node25" class="node"><title>n4_0_l</title>
<polygon fill="white" stroke="white" points="154,-310 132,-310 132,-288 154,-288 154,-310"/>
</g>
<!-- n4_0_l&#45;&gt;n4_0 -->
<g id="edge24" class="edge"><title>n4_0_l&#45;&gt;n4_0</title>
<path fill="none" stroke="white" d="M143,-287.609C143,-283.325 143,-278.46 143,-274.193"/>
<text text-anchor="middle" x="147.226" y="-281.556" font-family="Helvetica,sans-Serif" font-size="8.00">&#39;p&#39; (0)[0]</text>
</g>
<!-- n8_8 -->
<g id="node27" class="node"><title>n8_8</title>
<polygon fill="white" stroke="black" points="176,-22 154,-22 154,-7.10543e-015 176,-0 176,-22"/>
</g>
<!-- n8_8_l -->
<g id="node28" class="node"><title>n8_8_l</title>
<polygon fill="white" stroke="white" points="131,-58 109,-58 109,-36 131,-36 131,-58"/>
</g>
<!-- n8_8_l&#45;&gt;n8_8 -->
<g id="edge26" class="edge"><title>n8_8_l&#45;&gt;n8_8</title>
<path fill="none" stroke="white" d="M131.355,-37.9157C138.229,-32.4167 146.959,-25.4325 153.804,-19.9567"/>
<text text-anchor="middle" x="149.367" y="-27.2185" font-family="Helvetica,sans-Serif" font-size="8.00">&#39;y&#39; (4)[8]</text>
</g>
<!-- n8_7 -->
<g id="node30" class="node"><title>n8_7</title>
<ellipse fill="white" stroke="black" cx="166" cy="-191" rx="11" ry="11"/>
</g>
<!-- n8_7&#45;&gt;n8_8 -->
<g id="edge28" class="edge"><title>n8_7&#45;&gt;n8_8</title>
<path fill="none" stroke="black" d="M165.748,-179.776C165.451,-165.613 165,-140.502 165,-119 165,-119 165,-119 165,-83 165,-66.0352 165,-46.8218 165,-32.5122"/>
<polygon fill="black" stroke="black" points="168.5,-32.2241 165,-22.2242 161.5,-32.2242 168.5,-32.2241"/>
</g>
<!-- n8_6 -->
<g id="node32" class="node"><title>n8_6</title>
<ellipse fill="white" stroke="black" cx="210" cy="-47" rx="11" ry="11"/>
</g>
<!-- n8_6&#45;&gt;n8_8 -->
<g id="edge30" class="edge"><title>n8_6&#45;&gt;n8_8</title>
<path fill="none" stroke="black" d="M201.324,-40.0588C196.407,-36.1257 190.053,-31.0424 184.037,-26.2297"/>
<polygon fill="black" stroke="black" points="186.206,-23.4822 176.21,-19.9683 181.833,-28.9483 186.206,-23.4822"/>
</g>
<!-- n8_7_l -->
<g id="node34" class="node"><title>n8_7_l</title>
<polygon fill="white" stroke="white" points="177,-238 155,-238 155,-216 177,-216 177,-238"/>
</g>
<!-- n8_7_l&#45;&gt;n8_7 -->
<g id="edge32" class="edge"><title>n8_7_l&#45;&gt;n8_7</title>
<path fill="none" stroke="white" d="M166,-215.609C166,-211.325 166,-206.46 166,-202.193"/>
<text text-anchor="middle" x="170.226" y="-209.556" font-family="Helvetica,sans-Serif" font-size="8.00">&#39;p&#39; (0)[7]</text>
</g>
<!-- n8_1 -->
<g id="node36" class="node"><title>n8_1</title>
<polygon fill="white" stroke="black" points="221,-238 199,-238 199,-216 221,-216 221,-238"/>
</g>
<!-- n8_1&#45;&gt;n8_7 -->
<g id="edge34" class="edge"><title>n8_1&#45;&gt;n8_7</title>
<path fill="none" stroke="black" d="M198.897,-217.916C193.952,-213.87 188.024,-209.019 182.57,-204.558"/>
<polygon fill="black" stroke="black" points="184.557,-201.661 174.601,-198.037 180.124,-207.079 184.557,-201.661"/>
</g>
<!-- n8_2 -->
<g id="node58" class="node"><title>n8_2</title>
<ellipse fill="white" stroke="black" cx="254" cy="-191" rx="11" ry="11"/>
</g>
<!-- n8_1&#45;&gt;n8_2 -->
<g id="edge60" class="edge"><title>n8_1&#45;&gt;n8_2</title>
<path fill="none" stroke="black" d="M221.103,-217.916C226.048,-213.87 231.976,-209.019 237.43,-204.558"/>
<polygon fill="black" stroke="black" points="239.876,-207.079 245.399,-198.037 235.443,-201.661 239.876,-207.079"/>
</g>
<!-- n8_6_l -->
<g id="node38" class="node"><title>n8_6_l</title>
<polygon fill="white" stroke="white" points="221,-94 199,-94 199,-72 221,-72 221,-94"/>
</g>
<!-- n8_6_l&#45;&gt;n8_6 -->
<g id="edge36" class="edge"><title>n8_6_l&#45;&gt;n8_6</title>
<path fill="none" stroke="white" d="M210,-71.6094C210,-67.3247 210,-62.4598 210,-58.1933"/>
<text text-anchor="middle" x="214.226" y="-65.5564" font-family="Helvetica,sans-Serif" font-size="8.00">&#39;q&#39; (2)[6]</text>
</g>
<!-- n8_5 -->
<g id="node40" class="node"><title>n8_5</title>
<ellipse fill="white" stroke="black" cx="254" cy="-83" rx="11" ry="11"/>
</g>
<!-- n8_5&#45;&gt;n8_6 -->
<g id="edge38" class="edge"><title>n8_5&#45;&gt;n8_6</title>
<path fill="none" stroke="grey" stroke-dasharray="5,2" d="M245.096,-75.7149C239.779,-71.3643 232.857,-65.7009 226.567,-60.5546"/>
<polygon fill="grey" stroke="grey" points="228.547,-57.6529 218.591,-54.0293 224.115,-63.0706 228.547,-57.6529"/>
</g>
<!-- n8_1_l -->
<g id="node42" class="node"><title>n8_1_l</title>
<polygon fill="white" stroke="white" points="210,-274 188,-274 188,-252 210,-252 210,-274"/>
</g>
<!-- n8_1_l&#45;&gt;n8_1 -->
<g id="edge40" class="edge"><title>n8_1_l&#45;&gt;n8_1</title>
<path fill="none" stroke="white" d="M202.48,-251.609C203.79,-247.325 205.276,-242.46 206.58,-238.193"/>
<text text-anchor="middle" x="207.973" y="-246.396" font-family="Helvetica,sans-Serif" font-size="8.00">&#39;x&#39; (1)[1]</text>
</g>
<!-- n8_0 -->
<g id="node44" class="node"><title>n8_0</title>
<ellipse fill="white" stroke="black" cx="243" cy="-263" rx="11" ry="11"/>
</g>
<!-- n8_0&#45;&gt;n8_1 -->
<g id="edge42" class="edge"><title>n8_0&#45;&gt;n8_1</title>
<path fill="none" stroke="black" d="M235.346,-254.65C232.889,-251.97 230.06,-248.883 227.203,-245.767"/>
<polygon fill="black" stroke="black" points="229.575,-243.175 220.238,-238.169 224.415,-247.905 229.575,-243.175"/>
</g>
<!-- n8_5_l -->
<g id="node46" class="node"><title>n8_5_l</title>
<polygon fill="white" stroke="white" points="221,-130 199,-130 199,-108 221,-108 221,-130"/>
</g>
<!-- n8_5_l&#45;&gt;n8_5 -->
<g id="edge44" class="edge"><title>n8_5_l&#45;&gt;n8_5</title>
<path fill="none" stroke="white" d="M221.103,-109.916C228.639,-103.75 238.456,-95.7175 245.399,-90.0373"/>
<text text-anchor="middle" x="241.061" y="-97.3473" font-family="Helvetica,sans-Serif" font-size="8.00">&#39;q&#39; (2)[5]</text>
</g>
<!-- n8_4 -->
<g id="node48" class="node"><title>n8_4</title>
<polygon fill="white" stroke="black" points="265,-130 243,-130 243,-108 265,-108 265,-130"/>
</g>
<!-- n8_4&#45;&gt;n8_5 -->
<g id="edge46" class="edge"><title>n8_4&#45;&gt;n8_5</title>
<path fill="none" stroke="black" d="M254,-107.609C254,-106.538 254,-105.431 254,-104.305"/>
<polygon fill="black" stroke="black" points="257.5,-104.193 254,-94.1933 250.5,-104.193 257.5,-104.193"/>
</g>
<!-- n8_0_l -->
<g id="node50" class="node"><title>n8_0_l</title>
<polygon fill="white" stroke="white" points="254,-310 232,-310 232,-288 254,-288 254,-310"/>
</g>
<!-- n8_0_l&#45;&gt;n8_0 -->
<g id="edge48" class="edge"><title>n8_0_l&#45;&gt;n8_0</title>
<path fill="none" stroke="white" d="M243,-287.609C243,-283.325 243,-278.46 243,-274.193"/>
<text text-anchor="middle" x="247.226" y="-281.556" font-family="Helvetica,sans-Serif" font-size="8.00">&#39;p&#39; (0)[0]</text>
</g>
<!-- n8_4_l -->
<g id="node52" class="node"><title>n8_4_l</title>
<polygon fill="white" stroke="white" points="221,-166 199,-166 199,-144 221,-144 221,-166"/>
</g>
<!-- n8_4_l&#45;&gt;n8_4 -->
<g id="edge50" class="edge"><title>n8_4_l&#45;&gt;n8_4</title>
<path fill="none" stroke="white" d="M221.103,-145.916C227.722,-140.5 236.102,-133.644 242.747,-128.207"/>
<text text-anchor="middle" x="238.409" y="-135.517" font-family="Helvetica,sans-Serif" font-size="8.00">&#39;r&#39; (3)[4]</text>
</g>
<!-- n8_3 -->
<g id="node54" class="node"><title>n8_3</title>
<ellipse fill="white" stroke="black" cx="254" cy="-155" rx="11" ry="11"/>
</g>
<!-- n8_3&#45;&gt;n8_4 -->
<g id="edge52" class="edge"><title>n8_3&#45;&gt;n8_4</title>
<path fill="none" stroke="black" d="M254,-143.609C254,-142.538 254,-141.431 254,-140.305"/>
<polygon fill="black" stroke="black" points="257.5,-140.193 254,-130.193 250.5,-140.193 257.5,-140.193"/>
</g>
<!-- n8_3_l -->
<g id="node56" class="node"><title>n8_3_l</title>
<polygon fill="white" stroke="white" points="221,-202 199,-202 199,-180 221,-180 221,-202"/>
</g>
<!-- n8_3_l&#45;&gt;n8_3 -->
<g id="edge54" class="edge"><title>n8_3_l&#45;&gt;n8_3</title>
<path fill="none" stroke="white" d="M221.103,-181.916C228.639,-175.75 238.456,-167.718 245.399,-162.037"/>
<text text-anchor="middle" x="241.061" y="-169.347" font-family="Helvetica,sans-Serif" font-size="8.00">&#39;q&#39; (2)[3]</text>
</g>
<!-- n8_2&#45;&gt;n8_3 -->
<g id="edge56" class="edge"><title>n8_2&#45;&gt;n8_3</title>
<path fill="none" stroke="grey" stroke-dasharray="5,2" d="M254,-179.609C254,-178.538 254,-177.431 254,-176.305"/>
<polygon fill="grey" stroke="grey" points="257.5,-176.193 254,-166.193 250.5,-176.193 257.5,-176.193"/>
</g>
<!-- n8_2_l -->
<g id="node60" class="node"><title>n8_2_l</title>
<polygon fill="white" stroke="white" points="265,-238 243,-238 243,-216 265,-216 265,-238"/>
</g>
<!-- n8_2_l&#45;&gt;n8_2 -->
<g id="edge58" class="edge"><title>n8_2_l&#45;&gt;n8_2</title>
<path fill="none" stroke="white" d="M254,-215.609C254,-211.325 254,-206.46 254,-202.193"/>
<text text-anchor="middle" x="258.226" y="-209.556" font-family="Helvetica,sans-Serif" font-size="8.00">&#39;q&#39; (2)[2]</text>
</g>
<!-- n11_11 -->
<g id="node63" class="node"><title>n11_11</title>
<polygon fill="white" stroke="black" points="331,-238 309,-238 309,-216 331,-216 331,-238"/>
</g>
<!-- n11_11_l -->
<g id="node64" class="node"><title>n11_11_l</title>
<polygon fill="white" stroke="white" points="298,-274 276,-274 276,-252 298,-252 298,-274"/>
</g>
<!-- n11_11_l&#45;&gt;n11_11 -->
<g id="edge62" class="edge"><title>n11_11_l&#45;&gt;n11_11</title>
<path fill="none" stroke="white" d="M297.441,-251.609C301.369,-247.325 305.828,-242.46 309.739,-238.193"/>
<text text-anchor="middle" x="306.731" y="-246.03" font-family="Helvetica,sans-Serif" font-size="8.00">&#39;r&#39; (3)[11]</text>
</g>
<!-- n11_10 -->
<g id="node66" class="node"><title>n11_10</title>
<ellipse fill="white" stroke="black" cx="331" cy="-263" rx="11" ry="11"/>
</g>
<!-- n11_10&#45;&gt;n11_11 -->
<g id="edge64" class="edge"><title>n11_10&#45;&gt;n11_11</title>
<path fill="none" stroke="black" d="M327.759,-252.394C327.331,-250.994 326.882,-249.521 326.423,-248.02"/>
<polygon fill="black" stroke="black" points="329.678,-246.697 323.409,-238.156 322.984,-248.743 329.678,-246.697"/>
</g>
<!-- n11_10_l -->
<g id="node68" class="node"><title>n11_10_l</title>
<polygon fill="white" stroke="white" points="342,-310 320,-310 320,-288 342,-288 342,-310"/>
</g>
<!-- n11_10_l&#45;&gt;n11_10 -->
<g id="edge66" class="edge"><title>n11_10_l&#45;&gt;n11_10</title>
<path fill="none" stroke="white" d="M331,-287.609C331,-283.325 331,-278.46 331,-274.193"/>
<text text-anchor="middle" x="335.226" y="-281.556" font-family="Helvetica,sans-Serif" font-size="8.00">&#39;q&#39; (2)[10]</text>
</g>
</g>
</svg>
